<?xml version="1.0" encoding="utf-8"?>
<!-- Generator: Adobe Illustrator 26.5.0, SVG Export Plug-In . SVG Version: 6.00 Build 0)  -->
<svg version="1.1" id="Layer_1" xmlns="http://www.w3.org/2000/svg" xmlns:xlink="http://www.w3.org/1999/xlink" x="0px" y="0px"
	 viewBox="0 0 529.7 349" style="enable-background:new 0 0 529.7 349;" xml:space="preserve">
<style type="text/css">
	.st0{fill:none;stroke:#FFFFFF;stroke-width:30;stroke-miterlimit:10;}
</style>
<path class="st0" d="M506.6,79.1c-1,0.8-2,1.5-3,2.1L280.3,210c-0.6,0.3-1.2,0.7-1.9,1c-3.7,2.1-7.9,3.2-12.2,3.2
	c-4.4,0-8.8-1.2-12.6-3.4c-1.1-0.4-2.1-0.9-3.1-1.5L28.1,80.9c-1.3-0.8-2.6-1.7-3.7-2.7L15.2,73c0,0.3,0,0.7,0,1v220.6
	c0,21.9,17.8,39.7,39.7,39.7h420.6c21.9,0,39.7-17.8,39.7-39.7V74.1L506.6,79.1z"/>
<path class="st0" d="M265.3,159.6L514.4,16.2c0.2-0.1,0.1-0.5-0.1-0.5H16.1c-0.2,0-0.3,0.3-0.1,0.5L265,159.6
	C265.1,159.7,265.2,159.7,265.3,159.6z"/>
</svg>
